<svg xmlns="http://www.w3.org/2000/svg" aria-hidden="true" style="position:absolute;width:0;height:0;overflow:hidden">
  <defs>
<symbol id="icon-phone" viewBox="0 0 18 18" fill="none" >
  <g clip-path="url(#clip0_343_10437)">
    <path d="M16.4981 12.6901V14.9401C16.499 15.1489 16.4562 15.3557 16.3725 15.5471C16.2888 15.7385 16.1661 15.9103 16.0122 16.0515C15.8583 16.1927 15.6765 16.3002 15.4787 16.3671C15.2808 16.434 15.0711 16.4589 14.8631 16.4401C12.5552 16.1893 10.3384 15.4007 8.39062 14.1376C6.57849 12.9861 5.04212 11.4497 3.89062 9.63757C2.6231 7.68098 1.8343 5.45332 1.58812 3.13507C1.56938 2.92767 1.59402 2.71864 1.66049 2.52129C1.72696 2.32394 1.8338 2.14259 1.97419 1.98879C2.11459 1.83499 2.28547 1.7121 2.47596 1.62796C2.66645 1.54382 2.87237 1.50027 3.08062 1.50007H5.33062C5.6946 1.49649 6.04746 1.62538 6.32344 1.86272C6.59942 2.10006 6.77968 2.42966 6.83062 2.79007C6.92559 3.51012 7.10171 4.21712 7.35562 4.89757C7.45653 5.16602 7.47837 5.45776 7.41855 5.73823C7.35873 6.01871 7.21977 6.27616 7.01812 6.48007L6.06562 7.43257C7.13329 9.31023 8.68796 10.8649 10.5656 11.9326L11.5181 10.9801C11.722 10.7784 11.9795 10.6395 12.26 10.5796C12.5404 10.5198 12.8322 10.5417 13.1006 10.6426C13.7811 10.8965 14.4881 11.0726 15.2081 11.1676C15.5724 11.219 15.9052 11.4025 16.143 11.6832C16.3809 11.9639 16.5072 12.3223 16.4981 12.6901Z" stroke="#59B17A" stroke-width="1.5" stroke-linecap="round" stroke-linejoin="round" />
  </g>
  <defs>
    <clipPath id="clip0_343_10437">
      <rect width="18" height="18" fill="white" />
    </clipPath>
  </defs>
</symbol>
<symbol id="icon-location" viewBox="0 0 18 18" fill="none">
  <path d="M15.75 7.5C15.75 12.75 9 17.25 9 17.25C9 17.25 2.25 12.75 2.25 7.5C2.25 5.70979 2.96116 3.9929 4.22703 2.72703C5.4929 1.46116 7.20979 0.75 9 0.75C10.7902 0.75 12.5071 1.46116 13.773 2.72703C15.0388 3.9929 15.75 5.70979 15.75 7.5Z" stroke="#59B17A" stroke-width="1.5" stroke-linecap="round" stroke-linejoin="round" />
  <path d="M9 9.75C10.2426 9.75 11.25 8.74264 11.25 7.5C11.25 6.25736 10.2426 5.25 9 5.25C7.75736 5.25 6.75 6.25736 6.75 7.5C6.75 8.74264 7.75736 9.75 9 9.75Z" stroke="#59B17A" stroke-width="1.5" stroke-linecap="round" stroke-linejoin="round" />
</symbol>
<symbol id="icon-facebook" viewBox="0 0 28 28"  >
  <path d="M17.0804 4.06023C17.2904 4.06023 17.5004 4.06023 17.9204 4.06023V7.21023C17.7104 7.21023 17.2904 7.21023 16.8704 7.21023C16.4504 7.21023 16.0304 7.21023 15.8204 7.42023C15.6104 7.63023 15.6104 7.84023 15.6104 8.33023C15.6104 8.75023 15.6104 9.03023 15.6104 9.45023H17.9204V12.1102H15.6104V23.6602H12.0404V12.0402H10.1504V9.38023H12.0404V8.47023C12.0404 6.93023 12.2504 5.81023 12.6704 5.32023C13.3004 4.41023 14.5604 3.99023 16.4504 3.99023C16.6604 4.06023 16.8704 4.06023 17.0804 4.06023Z" />
</symbol>
<symbol id="icon-instagram" viewBox="0 0 28 28" >
  <g >
    <path d="M25.1286 9.41127C25.115 8.47121 24.9408 7.5386 24.6074 6.65939C24.0241 5.15803 22.8361 3.97084 21.3323 3.38967C20.4628 3.06307 19.5436 2.88797 18.6131 2.86811C17.4165 2.81471 17.0371 2.7998 13.9995 2.7998C10.962 2.7998 10.5726 2.7998 9.3847 2.86811C8.45551 2.88797 7.53628 3.06307 6.6668 3.38967C5.16293 3.97084 3.97377 5.15803 3.39163 6.65939C3.06449 7.52743 2.88785 8.44513 2.87044 9.37277C2.81695 10.5687 2.80078 10.9474 2.80078 13.9799C2.80078 17.0125 2.80078 17.3999 2.87044 18.5871C2.8891 19.516 3.06449 20.4325 3.39163 21.303C3.97501 22.8031 5.16293 23.9903 6.66804 24.5714C7.53379 24.9092 8.45303 25.1005 9.38594 25.1303C10.5838 25.1837 10.9632 25.1998 14.0008 25.1998C17.0384 25.1998 17.4277 25.1998 18.6156 25.1303C19.5448 25.1116 20.464 24.9365 21.3348 24.6099C22.8386 24.0275 24.0266 22.8403 24.6099 21.3402C24.9371 20.4709 25.1125 19.5545 25.1311 18.6244C25.1846 17.4297 25.2008 17.051 25.2008 14.0172C25.1983 10.9847 25.1983 10.5997 25.1286 9.41127ZM13.9921 19.7147C10.8152 19.7147 8.24156 17.1453 8.24156 13.9737C8.24156 10.8021 10.8152 8.23278 13.9921 8.23278C17.1665 8.23278 19.7426 10.8021 19.7426 13.9737C19.7426 17.1453 17.1665 19.7147 13.9921 19.7147ZM19.9715 9.35911C19.2289 9.35911 18.6305 8.76056 18.6305 8.02043C18.6305 7.2803 19.2289 6.68174 19.9715 6.68174C20.7116 6.68174 21.3111 7.2803 21.3111 8.02043C21.3111 8.76056 20.7116 9.35911 19.9715 9.35911Z" fill="" />
    <path d="M13.9918 17.4787C15.9267 17.4787 17.4953 15.9101 17.4953 13.9752C17.4953 12.0403 15.9267 10.4717 13.9918 10.4717C12.0569 10.4717 10.4883 12.0403 10.4883 13.9752C10.4883 15.9101 12.0569 17.4787 13.9918 17.4787Z"  />
  </g>
</symbol>
<symbol  id="icon-youtube" viewBox="0 0 28 28" >
  <g >
    <path fill-rule="evenodd" clip-rule="evenodd" d="M21.2094 5.24937C20.0194 5.17937 17.5694 5.10938 13.8594 5.10938H13.3694C9.79937 5.10938 7.4194 5.17937 6.2294 5.31937C4.6194 5.45937 3.49937 5.87937 2.86937 6.43937C2.30937 6.92937 1.88938 7.83937 1.74938 9.02937C1.67938 9.79937 1.60938 11.4094 1.60938 13.8594V14.2094C1.60938 16.5194 1.67937 18.1294 1.81937 18.8994C2.02937 20.0194 2.3794 20.8594 3.0794 21.3494C3.7794 21.9094 4.96938 22.2594 6.64938 22.3994C7.83938 22.4694 10.2894 22.5394 13.9994 22.5394H14.4894C18.0594 22.5394 20.4394 22.4694 21.6294 22.3294C23.2394 22.1894 24.3594 21.7694 24.9894 21.2094C25.5494 20.7194 25.9694 19.8094 26.1094 18.6194C26.1794 17.8494 26.2494 16.2394 26.2494 13.7894V13.4394C26.2494 11.1294 26.1794 9.51937 26.0394 8.74937C25.8294 7.62937 25.4794 6.78937 24.7794 6.29937C24.0794 5.73937 22.8894 5.38937 21.2094 5.24937ZM18.4794 13.8594L10.7794 18.4794V9.23937L18.4794 13.8594Z"  />
  </g>
</symbol>
<symbol id="icon-cart"  viewBox="0 0 16 16" fill="none">
  <g clip-path="url(#clip0_343_10554)">
    <path d="M6.0026 14.6663C6.37079 14.6663 6.66927 14.3679 6.66927 13.9997C6.66927 13.6315 6.37079 13.333 6.0026 13.333C5.63441 13.333 5.33594 13.6315 5.33594 13.9997C5.33594 14.3679 5.63441 14.6663 6.0026 14.6663Z" stroke="#59B17A" stroke-width="1.5" stroke-linecap="round" stroke-linejoin="round" />
    <path d="M13.3307 14.6663C13.6989 14.6663 13.9974 14.3679 13.9974 13.9997C13.9974 13.6315 13.6989 13.333 13.3307 13.333C12.9625 13.333 12.6641 13.6315 12.6641 13.9997C12.6641 14.3679 12.9625 14.6663 13.3307 14.6663Z" stroke="#59B17A" stroke-width="1.5" stroke-linecap="round" stroke-linejoin="round" />
    <path d="M0.664062 0.666992H3.33073L5.1174 9.59366C5.17836 9.90059 5.34533 10.1763 5.58909 10.3725C5.83285 10.5688 6.13786 10.673 6.45073 10.667H12.9307C13.2436 10.673 13.5486 10.5688 13.7924 10.3725C14.0361 10.1763 14.2031 9.90059 14.2641 9.59366L15.3307 4.00033H3.9974" stroke="#59B17A" stroke-width="1.5" stroke-linecap="round" stroke-linejoin="round" />
  </g>
  <defs>
    <clipPath id="clip0_343_10554">
      <rect width="16" height="16" fill="white" />
    </clipPath>
  </defs>
</symbol>
<symbol  id="icon-star" viewBox="0 0 16 15"  >
<path d="M6.20021 4.69703L8 1.28579L9.79979 4.69703C9.95896 4.9987 10.2491 5.20947 10.5851 5.26762L14.3856 5.92519L11.6975 8.69103C11.4598 8.93563 11.3489 9.27666 11.3975 9.61427L11.9465 13.4319L8.48537 11.7301C8.17929 11.5795 7.82071 11.5795 7.51463 11.7301L4.05348 13.4319L4.6025 9.61427C4.65105 9.27666 4.54024 8.93563 4.30252 8.69103L1.6144 5.92519L5.41486 5.26762C5.75095 5.20947 6.04104 4.9987 6.20021 4.69703Z" fill="" stroke="" stroke-width="1.2"/>
</symbol>
<symbol id="icon-close-eye" viewBox="0 0 22 22" fill="none" >
  <g clip-path="url(#clip0_55848_2014)">
    <path d="M16.4463 16.445C14.8793 17.6394 12.9713 18.3011 11.0013 18.3333C4.58464 18.3333 0.917969 11 0.917969 11C2.0582 8.87507 3.63968 7.01855 5.5563 5.555M9.0763 3.88666C9.70727 3.73897 10.3533 3.66514 11.0013 3.66666C17.418 3.66666 21.0846 11 21.0846 11C20.5282 12.041 19.8646 13.021 19.1046 13.9242M12.9446 12.9433C12.6929 13.2135 12.3893 13.4302 12.0519 13.5805C11.7146 13.7308 11.3505 13.8117 10.9812 13.8182C10.612 13.8247 10.2452 13.7568 9.90278 13.6184C9.56036 13.4801 9.2493 13.2743 8.98816 13.0131C8.72703 12.752 8.52116 12.4409 8.38285 12.0985C8.24454 11.7561 8.17662 11.3893 8.18313 11.0201C8.18965 10.6508 8.27047 10.2867 8.42077 9.94936C8.57108 9.61203 8.78778 9.30843 9.05797 9.05666" stroke="#59B17A" stroke-width="2" stroke-linecap="round" stroke-linejoin="round" />
    <path d="M0.917969 0.916672L21.0846 21.0833" stroke="#59B17A" stroke-width="2" stroke-linecap="round" stroke-linejoin="round" />
  </g>
 </symbol>
<symbol id="icon-open-eye" viewBox="0 0 22 22" fill="none" >
  <g clip-path="url(#clip0_55848_2020)">
    <path d="M0.916016 11C0.916016 11 4.58268 3.66667 10.9993 3.66667C17.416 3.66667 21.0827 11 21.0827 11C21.0827 11 17.416 18.3333 10.9993 18.3333C4.58268 18.3333 0.916016 11 0.916016 11Z" stroke="#59B17A" stroke-width="2" stroke-linecap="round" stroke-linejoin="round" />
    <path d="M11 13.75C12.5188 13.75 13.75 12.5188 13.75 11C13.75 9.48122 12.5188 8.25 11 8.25C9.48122 8.25 8.25 9.48122 8.25 11C8.25 12.5188 9.48122 13.75 11 13.75Z" stroke="#59B17A" stroke-width="2" stroke-linecap="round" stroke-linejoin="round" />
  </g>
 </symbol>
 <symbol id="icon-burger" viewBox="0 0 32 26" fill="none">
  <path d="M28.3379 13.207H4.33789" stroke="" stroke-width="2" stroke-linecap="round" stroke-linejoin="round" />
  <path d="M28.3379 8.00684H4.33789" stroke="" stroke-width="2" stroke-linecap="round" stroke-linejoin="round" />
  <path d="M28.3379 18.4072H4.33789" stroke="" stroke-width="2" stroke-linecap="round" stroke-linejoin="round" />
</symbol>
<symbol id="icon-lightning" viewBox="0 0 20 21" fill="none">
  <path d="M10.8331 2.16699L3.41094 11.0735C3.12026 11.4223 2.97492 11.5967 2.9727 11.744C2.97077 11.8721 3.02783 11.9939 3.12744 12.0744C3.24201 12.167 3.46904 12.167 3.92308 12.167H9.99972L9.16639 18.8337L16.5885 9.92711C16.8792 9.57831 17.0245 9.4039 17.0267 9.25661C17.0287 9.12856 16.9716 9.00674 16.872 8.92625C16.7574 8.83366 16.5304 8.83366 16.0764 8.83366H9.99972L10.8331 2.16699Z" stroke="#59B17A" stroke-width="1.5" stroke-linecap="round" stroke-linejoin="round" />
</symbol>
<symbol id="icon-bg" viewBox="0 0 216 168" fill="none">
  <path d="M48.8027 143.945C53.6821 131.868 67.4281 126.033 79.5051 130.912L263.816 205.378L246.146 249.113L61.8351 174.647C49.7581 169.767 43.9233 156.022 48.8027 143.945Z" fill="#59B17A" fill-opacity="0.08" />
  <path d="M113.943 42.8674C118.823 30.7904 132.569 24.9556 144.646 29.835L328.956 104.301L311.286 148.036L126.976 73.5697C114.899 68.6903 109.064 54.9444 113.943 42.8674Z" fill="#59B17A" fill-opacity="0.08" />
  <path d="M30.8349 73.1906C35.7144 61.1136 49.4603 55.2788 61.5373 60.1582L245.848 134.625L228.178 178.359L43.8673 103.893C31.7903 99.0135 25.9555 85.2676 30.8349 73.1906Z" fill="#59B17A" fill-opacity="0.08" />
</symbol>
<symbol id="icon-close" viewBox="0 0 32 32" fill="none" >
  <path d="M24 8L8 24" stroke="white" stroke-width="2" stroke-linecap="round" stroke-linejoin="round" />
  <path d="M8 8L24 24" stroke="white" stroke-width="2" stroke-linecap="round" stroke-linejoin="round" />
</symbol>
<symbol id="icon-close-modal" viewBox="0 0 32 32" fill="none" >
  <path d="M24 8L8 24" stroke="black" stroke-width="2" stroke-linecap="round" stroke-linejoin="round" />
  <path d="M8 8L24 24" stroke="black" stroke-width="2" stroke-linecap="round" stroke-linejoin="round" />
</symbol>
<symbol id="icon-pagination-left"  viewBox="0 0 20 20"  >
  <path d="M8.83387 10.5917C8.75576 10.5142 8.69377 10.4221 8.65146 10.3205C8.60915 10.219 8.58737 10.11 8.58737 10C8.58737 9.89001 8.60915 9.78109 8.65146 9.67954C8.69377 9.57799 8.75576 9.48582 8.83387 9.40835L12.6589 5.59168C12.737 5.51421 12.799 5.42204 12.8413 5.32049C12.8836 5.21894 12.9054 5.11002 12.9054 5.00001C12.9054 4.89 12.8836 4.78108 12.8413 4.67953C12.799 4.57798 12.737 4.48581 12.6589 4.40834C12.5027 4.25313 12.2915 4.16602 12.0714 4.16602C11.8512 4.16602 11.64 4.25313 11.4839 4.40834L7.65887 8.23335C7.1907 8.7021 6.92773 9.33752 6.92773 10C6.92773 10.6625 7.1907 11.2979 7.65887 11.7667L11.4839 15.5917C11.6391 15.7457 11.8486 15.8324 12.0672 15.8334C12.1769 15.834 12.2856 15.813 12.3871 15.7715C12.4887 15.73 12.581 15.6689 12.6589 15.5917C12.737 15.5142 12.799 15.4221 12.8413 15.3205C12.8836 15.219 12.9054 15.11 12.9054 15C12.9054 14.89 12.8836 14.7811 12.8413 14.6795C12.799 14.578 12.737 14.4858 12.6589 14.4084L8.83387 10.5917Z"   />
</symbol>
<symbol id="icon-pagination-right" viewBox="0 0 20 20"  >
  <path d="M11.1661 10.5917C11.2442 10.5142 11.3062 10.422 11.3485 10.3205C11.3908 10.2189 11.4126 10.11 11.4126 10C11.4126 9.89001 11.3908 9.78108 11.3485 9.67953C11.3062 9.57798 11.2442 9.48582 11.1661 9.40835L7.34113 5.59168C7.26302 5.51421 7.20103 5.42204 7.15872 5.32049C7.11641 5.21894 7.09463 5.11002 7.09463 5.00001C7.09463 4.89 7.11641 4.78108 7.15872 4.67953C7.20103 4.57798 7.26302 4.48581 7.34113 4.40834C7.49727 4.25313 7.70848 4.16602 7.92863 4.16602C8.14879 4.16602 8.36 4.25313 8.51613 4.40834L12.3411 8.23335C12.8093 8.7021 13.0723 9.33751 13.0723 10C13.0723 10.6625 12.8093 11.2979 12.3411 11.7667L8.51613 15.5917C8.36091 15.7456 8.15142 15.8324 7.9328 15.8334C7.82313 15.834 7.71441 15.813 7.61288 15.7715C7.51134 15.73 7.419 15.6689 7.34113 15.5917C7.26302 15.5142 7.20103 15.4221 7.15872 15.3205C7.11641 15.219 7.09463 15.11 7.09463 15C7.09463 14.89 7.11641 14.7811 7.15872 14.6795C7.20103 14.578 7.26302 14.4858 7.34113 14.4084L11.1661 10.5917Z"  />
</symbol>
<symbol id="icon-dropdown" viewBox="0 0 16 16" fill="none">
  <path d="M4 6L8 10L12 6" stroke="#1D1E21" stroke-width="1.5" stroke-linecap="round" stroke-linejoin="round" />
</symbol>
<symbol id="icon-search" viewBox="0 0 16 16" fill="none">
  <path d="M7.33333 12.6667C10.2789 12.6667 12.6667 10.2789 12.6667 7.33333C12.6667 4.38781 10.2789 2 7.33333 2C4.38781 2 2 4.38781 2 7.33333C2 10.2789 4.38781 12.6667 7.33333 12.6667Z" stroke="#1D1E21" stroke-width="1.5" stroke-linecap="round" stroke-linejoin="round" />
  <path d="M13.9996 13.9996L11.0996 11.0996" stroke="#1D1E21" stroke-width="1.5" stroke-linecap="round" stroke-linejoin="round" />
</symbol>
<symbol id="icon-arrow-top" viewBox="0 0 32 32">
<path d="M27.414 12.586l-10-10c-0.781-0.781-2.047-0.781-2.828 0l-10 10c-0.781 0.781-0.781 2.047 0 2.828s2.047 0.781 2.828 0l6.586-6.586v19.172c0 1.105 0.895 2 2 2s2-0.895 2-2v-19.172l6.586 6.586c0.39 0.39 0.902 0.586 1.414 0.586s1.024-0.195 1.414-0.586c0.781-0.781 0.781-2.047 0-2.828z"></path>
</symbol>
<symbol  id="icon-plus" viewBox="0 0 18 18" fill="none">
  <path d="M9 3.75V14.25" stroke="#59B17A" stroke-width="1.8" stroke-linecap="round" stroke-linejoin="round" />
  <path d="M3.74902 9H14.249" stroke="#59B17A" stroke-width="1.8" stroke-linecap="round" stroke-linejoin="round" />
</symbol>
<symbol  id="icon-minus" viewBox="0 0 18 18" fill="none">
  <path d="M3.74902 9H14.249" stroke="#59B17A" stroke-width="1.8" stroke-linecap="round" stroke-linejoin="round" />
</symbol>
<symbol id="icon-checked"  viewBox="0 0 18 18" fill="none">
  <rect x="1" y="1" width="16" height="16" rx="8" stroke="#59B17A" stroke-width="2" />
  <rect x="4" y="4" width="10" height="10" rx="5" fill="#59B17A" />
</symbol>
<symbol id="icon-unchecked"  viewBox="0 0 18 18" fill="none">
  <rect x="1" y="1" width="16" height="16" rx="8" stroke="rgba(18, 20, 23, 0.2)" stroke-width="2" />

</symbol>
   </defs>
  </svg>